<svg id="nav-svg" width="1440" height="142" viewBox="0 0 1440 142" fill="none" xmlns="http://www.w3.org/2000/svg">
<path d="M0 82L34.4 98C68.8 114 137.6 146 206.08 141.5C274.72 137 342.88 96 411.52 87.2C480 78.3 548.8 101.7 617.28 103.2C685.92 104.7 754.08 84.3 822.72 80.7C891.2 77 960 90 1028.48 96.3C1097.12 102.7 1165.28 102.3 1233.92 96.5C1302.4 90.7 1371.2 79.3 1405.6 73.7L1440 68V-32H1405.6C1371.2 -32 1302.4 -32 1233.92 -32C1165.28 -32 1097.12 -32 1028.48 -32C960 -32 891.2 -32 822.72 -32C754.08 -32 685.92 -32 617.28 -32C548.8 -32 480 -32 411.52 -32C342.88 -32 274.72 -32 206.08 -32C137.6 -32 68.8 -32 34.4 -32H0V82Z" fill="#3772FF"/>
</svg>
